<svg width="33" height="33" viewBox="0 0 33 33" fill="none" xmlns="http://www.w3.org/2000/svg">
<path d="M28.1673 4.83276C25.0509 1.71632 20.9073 0 16.5 0C12.0927 0 7.94913 1.71632 4.8327 4.83276C1.71626 7.9492 0 12.0927 0 16.5C0 20.9073 1.71626 25.0509 4.8327 28.1672C7.94913 31.2836 12.0927 33 16.5 33C20.9073 33 25.0509 31.2837 28.1673 28.1672C31.2837 25.0508 33 20.9073 33 16.5C33 12.0927 31.2837 7.94913 28.1673 4.83276ZM16.5 29.7614C9.1876 29.7614 3.23864 23.8123 3.23864 16.5C3.23864 16.488 3.23903 16.4762 3.23909 16.4643C3.23909 16.4613 3.23864 16.4584 3.23864 16.4553C3.23864 16.4502 3.23928 16.4453 3.23941 16.4403C3.27158 9.21557 9.11019 3.33764 16.3198 3.24096C16.3349 3.24025 16.3498 3.23871 16.3651 3.23871C16.3743 3.23871 16.3831 3.2398 16.3922 3.24006C16.4282 3.2398 16.464 3.23871 16.5001 3.23871C23.8125 3.23871 29.7614 9.18773 29.7614 16.5001C29.7614 23.8124 23.8124 29.7614 16.5 29.7614Z" fill="white"/>
<path d="M26.5732 17.2966C26.034 17.2966 25.5968 16.8595 25.5968 16.3203C25.5968 15.7811 26.034 15.344 26.5732 15.344H27.75C27.1973 9.92501 22.8025 5.62618 17.3414 5.22257V6.24706C17.3414 6.78627 16.9043 7.22339 16.365 7.22339C15.8258 7.22339 15.3887 6.78627 15.3887 6.24706V5.2459C10.0084 5.77313 5.72273 10.0865 5.23785 15.4789H6.29178C6.831 15.4789 7.26812 15.916 7.26812 16.4552C7.26812 16.9944 6.831 17.4315 6.29178 17.4315H5.22986C5.67877 22.9108 10.0504 27.2958 15.5237 27.7661V26.5284C15.5237 25.9892 15.9608 25.5521 16.5 25.5521C17.0392 25.5521 17.4763 25.9892 17.4763 26.5284V27.7661C22.9944 27.2919 27.3926 22.8386 27.7803 17.2966H26.5732ZM20.4523 13.9284L17.1904 17.1904C17.0073 17.3735 16.759 17.4763 16.5001 17.4763C16.2412 17.4763 15.9928 17.3735 15.8097 17.1904L10.1318 11.5125C9.75053 11.1312 9.75053 10.5131 10.1318 10.1318C10.5131 9.75047 11.1312 9.75047 11.5126 10.1318L16.5001 15.1193L19.0717 12.5477C19.4529 12.1664 20.0711 12.1664 20.4524 12.5477C20.8336 12.929 20.8336 13.5472 20.4523 13.9284Z" fill="white"/>
</svg>
